<svg width="59" height="59" viewBox="0 0 59 59" fill="none" xmlns="http://www.w3.org/2000/svg">
    <g clip-path="url(#clip0_18_113)">
        <g clip-path="url(#clip1_18_113)">
            <mask id="mask0_18_113" style="mask-type:alpha" maskUnits="userSpaceOnUse" x="0" y="0" width="59" height="59">
                <path d="M47.9398 23.9652C47.9398 29.2537 46.2228 34.1389 43.3302 38.1024L57.9196 52.7005C59.3601 54.1407 59.3601 56.4796 57.9196 57.9198C56.4791 59.3601 54.1398 59.3601 52.6993 57.9198L38.1099 43.3218C34.1456 46.2137 29.2594 47.9305 23.9699 47.9305C10.7288 47.9305 0 37.2037 0 23.9652C0 10.7267 10.7288 0 23.9699 0C37.211 0 47.9398 10.7267 47.9398 23.9652ZM23.9699 40.5566C33.1315 40.5566 40.5645 33.125 40.5645 23.9652C40.5645 14.8054 33.1315 7.37392 23.9699 7.37392C14.8083 7.37392 7.37536 14.8054 7.37536 23.9652C7.37536 33.125 14.8083 40.5566 23.9699 40.5566Z" fill="black"/>
            </mask>
            <g mask="url(#mask0_18_113)">
                <rect x="0.5" y="37.5" width="59" height="23" fill="white"/>
                <rect x="-1.5" y="15.5" width="61" height="20" fill="white"/>
                <rect x="-0.5" y="-6.5" width="59" height="20" fill="white"/>
            </g>
        </g>
        <g clip-path="url(#clip2_18_113)">
            <mask id="mask1_18_113" style="mask-type:alpha" maskUnits="userSpaceOnUse" x="18" y="18" width="12" height="14">
                <path d="M26.8186 18.6462C27.1108 18.8517 27.2188 19.2244 27.0862 19.5494L25.1613 24.2353H28.7141C29.0455 24.2353 29.3401 24.4361 29.4531 24.7395C29.566 25.043 29.4703 25.3823 29.2174 25.5878L22.1463 31.3228C21.8689 31.5474 21.4736 31.5593 21.1814 31.3538C20.8892 31.1483 20.7812 30.7756 20.9138 30.4506L22.8387 25.7647H19.2859C18.9545 25.7647 18.6599 25.5639 18.5469 25.2605C18.434 24.957 18.5297 24.6177 18.7826 24.4122L25.8537 18.6772C26.1311 18.4526 26.5264 18.4407 26.8186 18.6462Z" fill="black"/>
            </mask>
            <g mask="url(#mask1_18_113)">
                <rect x="-0.5" y="16.5" width="59" height="17" fill="white"/>
            </g>
        </g>
    </g>
    <defs>
        <clipPath id="clip0_18_113">
            <rect width="59" height="59" fill="white"/>
        </clipPath>
        <clipPath id="clip1_18_113">
            <rect width="59" height="59" fill="white"/>
        </clipPath>
        <clipPath id="clip2_18_113">
            <rect width="11" height="13" fill="white" transform="translate(18.5 18.5)"/>
        </clipPath>
    </defs>
</svg>
