<svg width="76" height="76" viewBox="0 0 76 76" fill="none" xmlns="http://www.w3.org/2000/svg">
    <g clip-path="url(#clip0_18_89)">
        <rect width="76" height="76" rx="25" fill="white"/>
        <g clip-path="url(#clip1_18_89)">
            <mask id="mask0_18_89" style="mask-type:alpha" maskUnits="userSpaceOnUse" x="8" y="8" width="60" height="60">
                <path d="M56.4398 32.4652C56.4398 37.7537 54.7228 42.6389 51.8302 46.6024L66.4196 61.2005C67.8601 62.6407 67.8601 64.9796 66.4196 66.4198C64.9791 67.8601 62.6398 67.8601 61.1993 66.4198L46.6099 51.8218C42.6456 54.7137 37.7594 56.4305 32.4699 56.4305C19.2288 56.4305 8.5 45.7037 8.5 32.4652C8.5 19.2267 19.2288 8.5 32.4699 8.5C45.711 8.5 56.4398 19.2267 56.4398 32.4652ZM32.4699 49.0566C41.6315 49.0566 49.0645 41.625 49.0645 32.4652C49.0645 23.3054 41.6315 15.8739 32.4699 15.8739C23.3083 15.8739 15.8754 23.3054 15.8754 32.4652C15.8754 41.625 23.3083 49.0566 32.4699 49.0566Z" fill="black"/>
            </mask>
            <g mask="url(#mask0_18_89)">
                <rect x="9" y="46" width="59" height="23" fill="#00BFB3"/>
                <rect x="7" y="24" width="61" height="20" fill="#343741"/>
                <rect x="8" y="2" width="59" height="20" fill="#FEC514"/>
            </g>
        </g>
        <mask id="mask1_18_89" style="mask-type:alpha" maskUnits="userSpaceOnUse" x="27" y="27" width="11" height="13">
            <path d="M35.3186 27.1462C35.6108 27.3517 35.7188 27.7244 35.5862 28.0494L33.6613 32.7353H37.2141C37.5455 32.7353 37.8401 32.9361 37.9531 33.2395C38.066 33.543 37.9703 33.8823 37.7174 34.0878L30.6463 39.8228C30.3689 40.0474 29.9736 40.0593 29.6814 39.8538C29.3892 39.6483 29.2812 39.2756 29.4138 38.9506L31.3387 34.2647H27.7859C27.4545 34.2647 27.1599 34.0639 27.0469 33.7605C26.934 33.457 27.0297 33.1177 27.2826 32.9122L34.3537 27.1772C34.6311 26.9526 35.0264 26.9407 35.3186 27.1462Z" fill="black"/>
        </mask>
        <g mask="url(#mask1_18_89)">
            <rect x="9" y="27" width="59" height="17" fill="#343741"/>
        </g>
    </g>
    <defs>
        <clipPath id="clip0_18_89">
            <rect width="76" height="76" fill="white"/>
        </clipPath>
        <clipPath id="clip1_18_89">
            <rect width="59" height="59" fill="white" transform="translate(8.5 8.5)"/>
        </clipPath>
    </defs>
</svg>
